# xmcd CD database file
#
# Track frame offsets:
#	150
#	12784
#	23404
#	34933
#	47175
#	60488
#	68144
#	82053
#	89362
#	106269
#	113656
#	129304
#	142856
#
# Disc length: 2038 seconds
#
# Revision: 0
# Processed by: cddbd v1.5.1PL0 Copyright (c) Steve Scherf et al.
# Submitted via: CDex 1.51
#
DISCID=9d07f40d
DTITLE=Animal Boys - Animal Boys II. - Live in Drevak, Kladno
DYEAR=2003
DGENRE=Country
TTITLE0=Song boys
TTITLE1=Az nam bude padesat
TTITLE2=Michigan
TTITLE3=Ze vsech chlapu
TTITLE4=Santiano
TTITLE5=Debil G
TTITLE6=Navrat
TTITLE7=Mana
TTITLE8=Doosen
TTITLE9=Long D
TTITLE10=Je Sobota
TTITLE11=Houka vlak
TTITLE12=Finska
EXTD=YEAR: 2003
EXTT0=
EXTT1=
EXTT2=
EXTT3=
EXTT4=
EXTT5=
EXTT6=
EXTT7=
EXTT8=
EXTT9=
EXTT10=
EXTT11=
EXTT12=
PLAYORDER=
